# xmcd CD database file
#
# Track frame offsets:
#	150
#	15698
#	33250
#	56500
#	74050
#	92209
#	114858
#	132140
#	155414
#	178122
#	201897
#	220673
#
# Disc length: 3205 seconds
#
# Revision: 0
# Processed by: cddbd v1.5.1PL0 Copyright (c) Steve Scherf et al.
# Submitted via: CDex 1.51
#
DISCID=a40c830c
DTITLE=monotone infinity - Evil Reflection
DYEAR=2004
DGENRE=Game
TTITLE0=Incidencd
TTITLE1=Under the stars/Cry
TTITLE2=ねがい/Kiss
TTITLE3=暗黒星/Twilight
TTITLE4=ファーレンハイトのテーマpart.2/Helpless
TTITLE5=Compression of time/Ripple
TTITLE6=エアリスのテーマ/Bleach
TTITLE7=A Chapel/Pieta
TTITLE8=墓碑銘/Smile
TTITLE9=極北の民/Meditation
TTITLE10=Feldschlacht/Resolution
TTITLE11=Reflection
EXTD=YEAR: 2004
EXTT0=
EXTT1=
EXTT2=
EXTT3=
EXTT4=
EXTT5=
EXTT6=
EXTT7=
EXTT8=
EXTT9=
EXTT10=
EXTT11=
PLAYORDER=
